# xmcd
#
# Track frame offsets:
#	150
#	11177
#	28020
#	40655
#	53362
#	64885
#	85532
#	100605
#	112477
#	133612
#	148760
#	159472
#	171502
#	182642
#	195657
#	210472
#
# Disc length: 2959 seconds
#
# Revision: 3
# Processed by: cddbd v1.5.2PL0 Copyright (c) Steve Scherf et al.
# Submitted via: EasyCDDAExtractor 16.0.6.1
#
DISCID=db0b8d10
DTITLE=Various Artist - C-061 Country Festival Vol. 2
DYEAR=1900
DGENRE=country
TTITLE0=The Bellamy Brothers - Let Your Love Flow
TTITLE1=Charlie Rich and His All Stars - Finally
TTITLE2=Merle Haggard and Friends - If You Want To Be My Woman
TTITLE3=Anne Murray - I Just Fall In Love Again
TTITLE4=Jeannie C. Riley - Total Woman
TTITLE5=Nitty Gritty Dirt Band - Mr. Bojangles
TTITLE6=Hoyt Axton - Evangelina
TTITLE7=Barbara Mandrell - Give A Little
TTITLE8=Tanya Tucker and Friends - Texas When I Die
TTITLE9=Georges Jones - I Always Get Lucky With You
TTITLE10=Stella Parton - Danger Of A Stranger
TTITLE11=Anne Murray - Last Thing On My Mind
TTITLE12=Don Williams - It Must Be Love
TTITLE13=Charlie Rich and His All Stars - I Take It On Home
TTITLE14=Merle Haggard and Friends - Folsom Prison Blues
TTITLE15=Donna Fargo - The Happiest Girl In The Whole U.S.A.
EXTD=
EXTT0=
EXTT1=
EXTT2=
EXTT3=
EXTT4=
EXTT5=
EXTT6=
EXTT7=
EXTT8=
EXTT9=
EXTT10=
EXTT11=
EXTT12=
EXTT13=
EXTT14=
EXTT15=
PLAYORDER=
